<svg width="22" height="20" viewBox="0 0 22 20" fill="none" xmlns="http://www.w3.org/2000/svg">
<path d="M20.924 3.641H3.862L3.609 0.816C3.58901 0.59301 3.48626 0.385582 3.32099 0.234558C3.15571 0.0835332 2.93988 -0.000144378 2.716 1.87005e-07H0.896C0.658366 1.87005e-07 0.430465 0.0943999 0.262432 0.262433C0.0943997 0.430465 0 0.658366 0 0.896C0 1.13363 0.0943997 1.36154 0.262432 1.52957C0.430465 1.6976 0.658366 1.792 0.896 1.792H1.896L2.927 13.275C3 14.103 3.447 15.001 4.218 15.611C2.829 17.385 4.098 20 6.358 20C8.233 20 9.555 18.13 8.912 16.358H13.817C13.175 18.128 14.494 20 16.372 20C17.0923 19.9992 17.783 19.7127 18.2923 19.2033C18.8017 18.694 19.0882 18.0034 19.089 17.283C19.0882 16.5627 18.8017 15.872 18.2923 15.3627C17.783 14.8533 17.0923 14.5668 16.372 14.566H6.364C5.683 14.566 5.09 14.156 4.834 13.557L19.155 12.715C19.3455 12.7039 19.5275 12.6322 19.6745 12.5104C19.8214 12.3887 19.9257 12.2231 19.972 12.038L21.793 4.755C21.826 4.62281 21.8284 4.48485 21.8001 4.35159C21.7717 4.21833 21.7135 4.09326 21.6296 3.98589C21.5457 3.87852 21.4385 3.79166 21.3161 3.7319C21.1937 3.67214 21.0602 3.64105 20.924 3.641ZM6.357 18.208C6.11911 18.1969 5.89464 18.0946 5.7302 17.9224C5.56577 17.7501 5.47402 17.5211 5.47402 17.283C5.47402 17.0449 5.56577 16.8159 5.7302 16.6436C5.89464 16.4714 6.11911 16.3691 6.357 16.358C6.59488 16.3691 6.81936 16.4714 6.9838 16.6436C7.14823 16.8159 7.23998 17.0449 7.23998 17.283C7.23998 17.5211 7.14823 17.7501 6.9838 17.9224C6.81936 18.0946 6.59488 18.1969 6.357 18.208ZM16.372 18.208C16.1341 18.1969 15.9096 18.0946 15.7452 17.9224C15.5808 17.7501 15.489 17.5211 15.489 17.283C15.489 17.0449 15.5808 16.8159 15.7452 16.6436C15.9096 16.4714 16.1341 16.3691 16.372 16.358C16.6099 16.3691 16.8344 16.4714 16.9988 16.6436C17.1632 16.8159 17.255 17.0449 17.255 17.283C17.255 17.5211 17.1632 17.7501 16.9988 17.9224C16.8344 18.0946 16.6099 18.1969 16.372 18.208ZM18.393 10.965L4.593 11.775L4.023 5.434H19.776L18.393 10.964V10.965Z" fill="white"/>
</svg>
